<?xml version="1.0" encoding="utf-8"?>
<!-- Generator: Adobe Illustrator 18.1.1, SVG Export Plug-In . SVG Version: 6.00 Build 0)  -->
<svg version="1.1" id="Layer_1" xmlns:sketch="http://www.bohemiancoding.com/sketch/ns"
	 xmlns="http://www.w3.org/2000/svg" xmlns:xlink="http://www.w3.org/1999/xlink" x="0px" y="0px" viewBox="200 55 560 560"
	 enable-background="new 200 55 560 560" xml:space="preserve">
<title>icon_lightning_component_w_tile</title>
<desc>Created with Sketch.</desc>
<path id="Shape" sketch:type="MSShapeGroup" fill="#FF7B84" d="M760,559c0,30.8-25.2,56-56,56H256c-30.8,0-56-25.2-56-56V111
	c0-30.8,25.2-56,56-56h448c30.8,0,56,25.2,56,56V559L760,559z"/>
<g>
	<g>
		<path fill="#FFFFFF" d="M627.8,151H332.2c-17.1,0-30.9,14.3-30.9,31.9v304.3c0,17.6,13.8,31.9,30.9,31.9h81.3l3.4-67.5
			c0-38-27.3-25.8-27.3-52.5c0-14.9,0.4-46,0.4-69.3c0-62.1,25.6-122.3,31.9-135.7c6.3-13.4,21.2-28,21.4-14
			c0,20.4,0.8,257.8,0.8,257.8h0l3.2,81.1h70.3l6.4-126.9c-15-3.4-27.8-13.2-35.8-25.6c-10-15.3,7.6-151,7.6-151h11.5v127.4h11.4
			V215.4h12.4v127.4h11.3V215.4h12.9v127.4h11.3V215.4h8.8c0,0,17.6,135.7,7.6,151c-7.9,12.2-20.6,22-35.4,25.5
			c-0.3,0.1-0.5,0.2-0.5,0.2l6.4,126.8h74.3c17.1,0,30.9-14.3,30.9-31.9V182.8C658.7,165.2,644.9,151,627.8,151z"/>
	</g>
</g>
</svg>
