
<?xml version="1.0" encoding="iso-8859-1"?>
<!-- Generator: Adobe Illustrator 17.1.0, SVG Export Plug-In . SVG Version: 6.00 Build 0)  -->
<!DOCTYPE svg PUBLIC "-//W3C//DTD SVG 1.1//EN" "http://www.w3.org/Graphics/SVG/1.1/DTD/svg11.dtd">
<svg version="1.1" id="Capa_1" xmlns="http://www.w3.org/2000/svg" xmlns:xlink="http://www.w3.org/1999/xlink" x="0px" y="0px"
	 viewBox="0 0 485.226 485.226" style="enable-background:new 0 0 485.226 485.226;" xml:space="preserve">
<path d="M483.029,169.781c-2.929-2.929-7.678-2.929-10.606,0l-13.647,13.647l-17.678-17.677l13.647-13.647
	c2.929-2.929,2.929-7.678,0-10.606L343.729,30.481c-2.929-2.929-7.678-2.929-10.606,0l-13.647,13.647l-17.678-17.678l13.647-13.647
	c2.929-2.929,2.929-7.677,0-10.606c-2.929-2.929-7.678-2.929-10.606,0l-18.91,18.91c-0.014,0.013-0.027,0.027-0.041,0.041
	c-0.014,0.013-0.027,0.027-0.041,0.041l-66.118,66.118c-0.009,0.009-0.018,0.018-0.026,0.026c-0.009,0.009-0.018,0.018-0.026,0.026
	l-33.021,33.021c-0.016,0.015-0.031,0.03-0.046,0.046c-0.015,0.015-0.03,0.031-0.045,0.046l-33.015,33.015
	c-0.011,0.01-0.021,0.021-0.032,0.031c-0.011,0.01-0.021,0.021-0.032,0.032l-33.027,33.027c-0.011,0.011-0.023,0.023-0.034,0.034
	c-0.012,0.011-0.023,0.023-0.034,0.034l-33.008,33.008c-0.017,0.017-0.034,0.033-0.051,0.05c-0.017,0.017-0.034,0.034-0.05,0.051
	l-33.01,33.01c-0.011,0.01-0.021,0.021-0.032,0.031s-0.021,0.021-0.032,0.032l-33.008,33.008c-0.018,0.018-0.036,0.035-0.053,0.053
	c-0.018,0.018-0.035,0.036-0.053,0.053L2.197,304.839c-2.929,2.929-2.929,7.677,0,10.606c2.929,2.929,7.678,2.929,10.606,0
	l13.647-13.647l17.678,17.677l-13.647,13.647c-2.929,2.929-2.929,7.678,0,10.606l111.016,111.016c2.929,2.929,7.678,2.929,10.606,0
	l13.647-13.647l17.678,17.678l-13.647,13.647c-2.929,2.929-2.929,7.677,0,10.606c1.464,1.465,3.384,2.197,5.303,2.197
	s3.839-0.732,5.303-2.197l18.91-18.91c0.014-0.013,0.027-0.027,0.041-0.041c0.014-0.013,0.027-0.027,0.041-0.041l66.118-66.118
	c0.009-0.009,0.018-0.018,0.026-0.026c0.009-0.009,0.018-0.018,0.026-0.026l33.021-33.021c0.016-0.015,0.031-0.03,0.046-0.046
	c0.015-0.015,0.03-0.031,0.045-0.046l33.015-33.015c0.011-0.01,0.021-0.021,0.032-0.031c0.011-0.01,0.021-0.021,0.032-0.032
	l33.027-33.027c0.011-0.011,0.023-0.023,0.034-0.034c0.012-0.011,0.023-0.023,0.034-0.034l33.008-33.008
	c0.017-0.017,0.034-0.033,0.051-0.05c0.017-0.017,0.034-0.034,0.05-0.051l33.01-33.01c0.011-0.01,0.021-0.021,0.032-0.031
	s0.021-0.021,0.032-0.032l33.008-33.008c0.018-0.018,0.036-0.035,0.053-0.053c0.018-0.018,0.035-0.036,0.053-0.053l18.897-18.897
	C485.958,177.459,485.958,172.71,483.029,169.781z M338.426,46.391L438.835,146.8l-90.274,90.274L248.152,136.665L338.426,46.391z
	 M337.954,247.681l-90.274,90.274L147.272,237.546l90.274-90.274L337.954,247.681z M291.191,37.057l17.678,17.678l-22.486,22.486
	l-17.678-17.678L291.191,37.057z M258.099,70.15l17.678,17.678l-22.486,22.486l-17.678-17.678L258.099,70.15z M225.006,103.243
	l17.678,17.677l-22.486,22.486l-17.678-17.677L225.006,103.243z M191.913,136.335l17.678,17.678l-22.486,22.486l-17.678-17.678
	L191.913,136.335z M158.821,169.428l17.678,17.678l-22.486,22.486l-17.678-17.678L158.821,169.428z M125.728,202.52l17.678,17.678
	l-12.009,12.009c-0.012,0.012-0.023,0.023-0.035,0.035c-0.012,0.012-0.023,0.023-0.035,0.035l-10.406,10.406l-17.678-17.677
	L125.728,202.52z M92.636,235.613l17.678,17.677l-22.486,22.486L70.15,258.099L92.636,235.613z M37.057,291.192l22.486-22.486
	l17.678,17.678l-22.486,22.486L37.057,291.192z M146.8,438.835L46.391,338.426l90.274-90.274l100.409,100.409L146.8,438.835z
	 M194.035,448.169l-17.678-17.678l22.486-22.486l17.678,17.678L194.035,448.169z M227.127,415.077l-17.678-17.678l22.486-22.486
	l17.678,17.678L227.127,415.077z M260.22,381.984l-17.678-17.677l22.486-22.486l17.678,17.677L260.22,381.984z M293.313,348.891
	l-17.678-17.678l22.486-22.486l17.678,17.678L293.313,348.891z M326.405,315.799l-17.678-17.678l22.486-22.486l17.678,17.678
	L326.405,315.799z M359.498,282.706l-17.678-17.678l12.009-12.009c0.012-0.012,0.023-0.023,0.035-0.035
	c0.012-0.012,0.023-0.023,0.035-0.035l10.406-10.406l17.678,17.677L359.498,282.706z M392.59,249.613l-17.678-17.677l22.486-22.486
	l17.678,17.677L392.59,249.613z M425.683,216.521l-17.678-17.678l22.486-22.486l17.677,17.678L425.683,216.521z"/>
<g>
</g>
<g>
</g>
<g>
</g>
<g>
</g>
<g>
</g>
<g>
</g>
<g>
</g>
<g>
</g>
<g>
</g>
<g>
</g>
<g>
</g>
<g>
</g>
<g>
</g>
<g>
</g>
<g>
</g>
</svg>
